<?xml version="1.0" encoding="UTF-8"?>
<!-- Generator: Adobe Illustrator 16.0.0, SVG Export Plug-In . SVG Version: 6.00 Build 0)  -->
<!DOCTYPE svg PUBLIC "-//W3C//DTD SVG 1.1//EN" "http://www.w3.org/Graphics/SVG/1.1/DTD/svg11.dtd">
<svg version="1.1" id="Layer_1" xmlns="http://www.w3.org/2000/svg" xmlns:xlink="http://www.w3.org/1999/xlink" x="0px" y="0px" width="512px" height="512px" viewBox="0 0 512 512" enable-background="new 0 0 512 512" xml:space="preserve">
<text transform="matrix(1 0 0 1 168.7834 543.8088)" fill="#FFFF00" font-family="'Verdana-Bold'" font-size="20">simpleicon.com</text>
<text transform="matrix(1 0 0 1 9.1931 567.8088)" fill="#FFFF00" font-family="'Verdana'" font-size="20">Collection Of Flat Icon, Symbols And Glyph Icons</text>
<g>
	<path d="M363.119,157.119c5.467,0,9.893,4.428,9.893,9.887c0,5.462-4.426,9.89-9.893,9.89c-5.462,0-9.888-4.428-9.888-9.89   C353.231,161.548,357.657,157.119,363.119,157.119z"/>
	<path d="M157.119,350.762h214.243V185.96H157.119V350.762z M284.838,278.597l37.579-14.751l-37.579-14.54v-15.018l53.563,23.195   v12.83l-53.563,23.411V278.597z M251.383,293.081l14.917-61.629c0.779-3.274,1.529-5.52,2.243-6.732s2.103-1.815,4.169-1.815   c1.786,0,3.148,0.427,4.089,1.285c0.94,0.855,1.419,2.035,1.419,3.528c0,1.102-0.383,3.113-1.122,6.038l-14.972,61.624   c-0.493,2.037-0.926,3.642-1.303,4.813c-0.367,1.177-0.945,2.103-1.71,2.751c-0.765,0.664-1.881,0.991-3.34,0.991   c-3.636,0-5.457-1.574-5.457-4.703C250.317,298.407,250.679,296.361,251.383,293.081z M190.081,257.378l53.557-23.303v15.231   l-37.463,14.434l37.463,14.751v15.123l-53.557-23.301V257.378z"/>
	<path d="M256,50C142.232,50,50,142.233,50,256s92.232,206,206,206s206-92.232,206-206S369.767,50,256,50z M387.838,352.402   c0,8.198-6.639,14.837-14.826,14.837H155.469c-8.192,0-14.831-6.639-14.831-14.837V163.718c0-8.198,6.639-14.836,14.831-14.836   h217.542c8.188,0,14.826,6.639,14.826,14.836V352.402z"/>
	<path d="M308.737,157.119c5.457,0,9.888,4.428,9.888,9.887c0,5.462-4.431,9.89-9.888,9.89c-5.462,0-9.888-4.428-9.888-9.89   C298.849,161.548,303.275,157.119,308.737,157.119z"/>
	<path d="M335.93,176.897c5.446,0,9.883-4.433,9.883-9.89c0-5.452-4.437-9.887-9.883-9.887c-5.452,0-9.893,4.436-9.893,9.887   C326.038,172.464,330.478,176.897,335.93,176.897z"/>
</g>
<head xmlns=""/></svg>